<?xml version="1.0" encoding="UTF-8" standalone="no"?>
<!-- Created with Inkscape (http://www.inkscape.org/) -->

<svg
   xmlns:dc="http://purl.org/dc/elements/1.1/"
   xmlns:cc="http://creativecommons.org/ns#"
   xmlns:rdf="http://www.w3.org/1999/02/22-rdf-syntax-ns#"
   xmlns:svg="http://www.w3.org/2000/svg"
   xmlns="http://www.w3.org/2000/svg"
   xmlns:sodipodi="http://sodipodi.sourceforge.net/DTD/sodipodi-0.dtd"
   xmlns:inkscape="http://www.inkscape.org/namespaces/inkscape"
   width="210mm"
   height="297mm"
   id="svg2"
   version="1.1"
   inkscape:version="0.48.3.1 r9886"
   sodipodi:docname="Neues Dokument 1">
  <defs
     id="defs4">
    <marker
       inkscape:stockid="Arrow2Lend"
       orient="auto"
       refY="0.0"
       refX="0.0"
       id="Arrow2Lend"
       style="overflow:visible;">
      <path
         id="path3836"
         style="fill-rule:evenodd;stroke-width:0.62500000;stroke-linejoin:round;"
         d="M 8.7185878,4.0337352 L -2.2072895,0.016013256 L 8.7185884,-4.0017078 C 6.9730900,-1.6296469 6.9831476,1.6157441 8.7185878,4.0337352 z "
         transform="scale(1.1) rotate(180) translate(1,0)" />
    </marker>
    <marker
       inkscape:stockid="Arrow1Mend"
       orient="auto"
       refY="0.0"
       refX="0.0"
       id="Arrow1Mend"
       style="overflow:visible;">
      <path
         id="path3824"
         d="M 0.0,0.0 L 5.0,-5.0 L -12.5,0.0 L 5.0,5.0 L 0.0,0.0 z "
         style="fill-rule:evenodd;stroke:#000000;stroke-width:1.0pt;"
         transform="scale(0.4) rotate(180) translate(10,0)" />
    </marker>
    <marker
       inkscape:stockid="TriangleOutL"
       orient="auto"
       refY="0.0"
       refX="0.0"
       id="TriangleOutL"
       style="overflow:visible">
      <path
         id="path3957"
         d="M 5.77,0.0 L -2.88,5.0 L -2.88,-5.0 L 5.77,0.0 z "
         style="fill-rule:evenodd;stroke:#000000;stroke-width:1.0pt"
         transform="scale(0.8)" />
    </marker>
    <marker
       inkscape:stockid="Arrow1Lend"
       orient="auto"
       refY="0.0"
       refX="0.0"
       id="Arrow1Lend"
       style="overflow:visible;">
      <path
         id="path3818"
         d="M 0.0,0.0 L 5.0,-5.0 L -12.5,0.0 L 5.0,5.0 L 0.0,0.0 z "
         style="fill-rule:evenodd;stroke:#000000;stroke-width:1.0pt;"
         transform="scale(0.8) rotate(180) translate(12.5,0)" />
    </marker>
    <marker
       inkscape:stockid="Arrow1Mend"
       orient="auto"
       refY="0"
       refX="0"
       id="Arrow1Mend-1"
       style="overflow:visible">
      <path
         inkscape:connector-curvature="0"
         id="path3824-2"
         d="M 0,0 5,-5 -12.5,0 5,5 0,0 z"
         style="fill-rule:evenodd;stroke:#000000;stroke-width:1pt"
         transform="matrix(-0.4,0,0,-0.4,-4,0)" />
    </marker>
    <marker
       inkscape:stockid="TriangleOutL"
       orient="auto"
       refY="0"
       refX="0"
       id="TriangleOutL-0"
       style="overflow:visible">
      <path
         inkscape:connector-curvature="0"
         id="path3957-5"
         d="m 5.77,0 -8.65,5 0,-10 8.65,5 z"
         style="fill-rule:evenodd;stroke:#000000;stroke-width:1pt"
         transform="scale(0.8,0.8)" />
    </marker>
    <marker
       inkscape:stockid="TriangleOutL"
       orient="auto"
       refY="0"
       refX="0"
       id="TriangleOutL-1"
       style="overflow:visible">
      <path
         inkscape:connector-curvature="0"
         id="path3957-2"
         d="m 5.77,0 -8.65,5 0,-10 8.65,5 z"
         style="fill-rule:evenodd;stroke:#000000;stroke-width:1pt"
         transform="scale(0.8,0.8)" />
    </marker>
  </defs>
  <sodipodi:namedview
     id="base"
     pagecolor="#ffffff"
     bordercolor="#666666"
     borderopacity="1.0"
     inkscape:pageopacity="0.0"
     inkscape:pageshadow="2"
     inkscape:zoom="0.38381835"
     inkscape:cx="311.19322"
     inkscape:cy="495.2824"
     inkscape:document-units="px"
     inkscape:current-layer="layer1"
     showgrid="false"
     inkscape:window-width="1024"
     inkscape:window-height="713"
     inkscape:window-x="-2"
     inkscape:window-y="-3"
     inkscape:window-maximized="1" />
  <metadata
     id="metadata7">
    <rdf:RDF>
      <cc:Work
         rdf:about="">
        <dc:format>image/svg+xml</dc:format>
        <dc:type
           rdf:resource="http://purl.org/dc/dcmitype/StillImage" />
        <dc:title></dc:title>
      </cc:Work>
    </rdf:RDF>
  </metadata>
  <g
     inkscape:label="Ebene 1"
     inkscape:groupmode="layer"
     id="layer1">
    <path
       sodipodi:type="arc"
       style="fill:#ffffff;fill-rule:evenodd;stroke:#000000;stroke-width:3.9000001;stroke-linecap:butt;stroke-linejoin:miter;stroke-miterlimit:4;stroke-opacity:1;stroke-dasharray:none"
       id="path2985"
       sodipodi:cx="155.71428"
       sodipodi:cy="202.36218"
       sodipodi:rx="67.14286"
       sodipodi:ry="64.285713"
       d="m 222.85714,202.36218 a 67.14286,64.285713 0 1 1 -134.285721,0 67.14286,64.285713 0 1 1 134.285721,0 z"
       transform="translate(0,91.428571)" />
    <path
       transform="translate(410.00001,90)"
       sodipodi:type="arc"
       style="fill:#ffffff;fill-rule:evenodd;stroke:#000000;stroke-width:3.9000001;stroke-linecap:butt;stroke-linejoin:miter;stroke-miterlimit:4;stroke-opacity:1;stroke-dasharray:none"
       id="path2985-2"
       sodipodi:cx="155.71428"
       sodipodi:cy="202.36218"
       sodipodi:rx="67.14286"
       sodipodi:ry="64.285713"
       d="m 222.85714,202.36218 a 67.14286,64.285713 0 1 1 -134.285721,0 67.14286,64.285713 0 1 1 134.285721,0 z" />
    <rect
       style="fill:#ffffff;stroke-width:3.9000001;stroke-miterlimit:4;stroke-dasharray:none"
       id="rect3780"
       width="277.14285"
       height="8.5714283"
       x="62.857143"
       y="643.79077" />
    <path
       style="fill:#ffffff;stroke-width:3.9000001;stroke-miterlimit:4;stroke-dasharray:none"
       id="path3788"
       d="m 298.72668,590.53889 c -1.45954,8.29326 -3.56429,16.42138 -5.8963,24.50961 -3.28566,8.23368 -4.75593,16.84993 -5.445,25.63128 -0.68604,9.56861 -0.15597,19.16479 -0.62731,28.73782 -0.71349,9.32177 -1.86924,18.5791 -3.28604,27.81616 -0.95492,6.65359 -1.85186,13.36354 -1.58729,20.09422 1.22857,8.77071 4.86043,16.75019 8.4644,24.73356 4.48425,7.15248 8.75081,14.51941 14.26417,20.94248 4.677,4.33683 10.59503,7.00334 15.47095,10.96747 2.3869,1.88888 5.13829,3.01809 7.9462,4.09204 0,0 -34.96309,23.29505 -34.96309,23.29505 l 0,0 c -2.98524,-1.41368 -5.92568,-2.88943 -8.54062,-4.94295 -5.3807,-3.80981 -11.11108,-7.16568 -15.83199,-11.8606 -5.52509,-6.89159 -9.82202,-14.58653 -14.34469,-22.1529 -3.90625,-8.35274 -8.04547,-16.5939 -9.6847,-25.77458 -0.70272,-7.04875 0.19281,-14.08391 1.33154,-21.05441 1.57151,-9.14243 2.96216,-18.25744 3.55233,-27.52821 0.89655,-9.51921 0.16292,-19.11378 0.5401,-28.66413 0.46601,-9.08661 1.62884,-18.13759 5.29559,-26.56468 2.27306,-7.8046 4.57715,-15.64192 5.20486,-23.78444 0,0 38.13689,-18.49279 38.13689,-18.49279 z"
       inkscape:connector-curvature="0" />
    <path
       style="fill:#ffffff;stroke-width:3.9000001;stroke-miterlimit:4;stroke-dasharray:none"
       id="path3790"
       d="m 294.98178,806.32354 c -11.39395,-7.47512 -23.42358,-13.85086 -34.99316,-21.0607 -28.17248,-18.46642 -56.13273,-37.33645 -82.92991,-57.75805 -24.81006,-18.20588 -43.15117,-42.62836 -59.36914,-68.39829 -10.91077,-20.63923 -17.61951,-42.99471 -24.269641,-65.25687 -4.507774,-14.31729 -7.771985,-28.97127 -10.133887,-43.7822 -1.3208,-8.50091 -1.053245,-17.15683 0.0207,-25.66292 0,0 37.458552,-18.33069 37.458552,-18.33069 l 0,0 c -1.64142,8.12447 -2.04747,16.53966 -1.04567,24.77905 1.83391,14.80486 5.09077,29.36582 8.9088,43.7802 6.27158,22.05083 12.30995,44.31035 23.03851,64.72274 15.4699,25.55551 33.3456,49.80116 57.47853,67.89956 26.76738,20.60214 55.11675,39.14847 84.13728,56.41946 12.11972,6.68967 24.55247,12.83971 36.88927,19.07323 0,0 -35.19023,23.57548 -35.19023,23.57548 z"
       inkscape:connector-curvature="0" />
    <path
       style="fill:none;stroke:#000000;stroke-width:3.66194105;stroke-linecap:square;stroke-miterlimit:0.5;stroke-opacity:1;stroke-dasharray:none;marker-end:url(#TriangleOutL)"
       d="M 540.98272,357.40494 C 520.11339,422.15354 451.79671,471.85699 368.01999,476.4369 285.74896,480.9345 213.16923,440.57109 183.73226,380.34746"
       id="path3809-5"
       inkscape:connector-curvature="0" />
    <path
       style="fill:none;stroke:#000000;stroke-width:3.66194105;stroke-linecap:square;stroke-miterlimit:0.5;stroke-opacity:1;stroke-dasharray:none;marker-end:url(#TriangleOutL)"
       d="m 176.19249,231.42396 c 20.86933,-64.7486 89.18601,-114.4521 172.96273,-119.032 82.27103,-4.4976 154.85076,35.8658 184.28773,96.0895"
       id="path3809-5-6"
       inkscape:connector-curvature="0" />
    <path
       style="fill:none;stroke:#000000;stroke-width:3.234;stroke-linecap:square;stroke-miterlimit:1.29999995;stroke-opacity:1;stroke-dasharray:none;marker-end:url(#TriangleOutL-1)"
       d="m 73.254883,344.72426 c -94.23131,-10.21252 -161.19623,-32.06315 -159.40965,-54.83519 1.75446,-22.36277 69.28664,-38.92724 161.94909,-42.51556"
       id="path3809-5-63"
       inkscape:connector-curvature="0" />
  </g>
</svg>
